<svg xmlns="http://www.w3.org/2000/svg" xmlns:xlink="http://www.w3.org/1999/xlink" width="18" height="18" viewBox="0 0 18 18"><defs><style>.a{fill:#fe9800;}.b{fill:rgba(0,0,0,0);}.c{fill:none;}.d{clip-path:url(#a);}</style><clipPath id="a"><path class="a" d="M7.615,15.23a7.615,7.615,0,0,1-5.385-13A7.615,7.615,0,1,1,13,13,7.565,7.565,0,0,1,7.615,15.23Zm0-12.462a.693.693,0,0,0-.692.693V7.329L5.049,9.2a.692.692,0,0,0,.979.979L8.1,8.1a.7.7,0,0,0,.2-.49V3.462A.693.693,0,0,0,7.615,2.769Z" transform="translate(0 0)"/></clipPath></defs><rect class="b" width="18" height="18"/><path class="c" d="M7.615,15.23a7.615,7.615,0,0,1-5.385-13A7.615,7.615,0,1,1,13,13,7.565,7.565,0,0,1,7.615,15.23Zm0-12.462a.693.693,0,0,0-.692.693V7.329L5.049,9.2a.692.692,0,0,0,.979.979L8.1,8.1a.7.7,0,0,0,.2-.49V3.462A.693.693,0,0,0,7.615,2.769Z" transform="translate(1.385 1.385)"/><g class="d" transform="translate(1.385 1.385)"><g transform="translate(-1.385 -1.385)"><rect class="a" width="18" height="18"/><rect class="a" width="18" height="18"/></g></g></svg>