<svg xmlns="http://www.w3.org/2000/svg" xmlns:xlink="http://www.w3.org/1999/xlink" width="16" height="16" viewBox="0 0 16 16"><defs><style>.a{fill:none;}.b{fill:rgba(0,0,0,0);}.c{clip-path:url(#a);}.d{fill:#8a8a8f;}</style><clipPath id="a"><path class="a" d="M12,12.923a.917.917,0,0,1-.653-.27L9.276,10.581a5.845,5.845,0,1,1,1.305-1.305l2.071,2.071A.923.923,0,0,1,12,12.923ZM5.846,1.846a4,4,0,1,0,2.76,6.895.957.957,0,0,1,.134-.134A4,4,0,0,0,5.846,1.846Z"/></clipPath></defs><rect class="b" width="16" height="16"/><path class="a" d="M12,12.923a.917.917,0,0,1-.653-.27L9.276,10.581a5.845,5.845,0,1,1,1.305-1.305l2.071,2.071A.923.923,0,0,1,12,12.923ZM5.846,1.846a4,4,0,1,0,2.76,6.895.957.957,0,0,1,.134-.134A4,4,0,0,0,5.846,1.846Z" transform="translate(1.538 1.538)"/><g class="c" transform="translate(1.538 1.538)"><g transform="translate(-1.538 -1.538)"><rect class="b" width="16" height="16"/><rect class="d" width="16" height="16"/></g></g></svg>