<svg xmlns="http://www.w3.org/2000/svg" xmlns:xlink="http://www.w3.org/1999/xlink" width="20" height="20" viewBox="0 0 20 20"><defs><style>.a{fill:none;}.b{fill:rgba(0,0,0,0);}.c{clip-path:url(#a);}.d{fill:#22242a;}</style><clipPath id="a"><path class="a" d="M2.692,17.693A2.693,2.693,0,0,1,0,15V9.615A2.692,2.692,0,0,1,2.692,6.923h.384V5a5,5,0,0,1,10,0V6.923h.384a2.692,2.692,0,0,1,2.692,2.692V15a2.693,2.693,0,0,1-2.692,2.692ZM10.77,6.923V5A2.692,2.692,0,1,0,5.385,5V6.923Z" transform="translate(0 0)"/></clipPath></defs><rect class="b" width="20" height="20"/><path class="a" d="M2.692,17.693A2.693,2.693,0,0,1,0,15V9.615A2.692,2.692,0,0,1,2.692,6.923h.384V5a5,5,0,0,1,10,0V6.923h.384a2.692,2.692,0,0,1,2.692,2.692V15a2.693,2.693,0,0,1-2.692,2.692ZM10.77,6.923V5A2.692,2.692,0,1,0,5.385,5V6.923Z" transform="translate(1.923 1.538)"/><g class="c" transform="translate(1.923 1.538)"><g transform="translate(-1.923 -1.538)"><rect class="b" width="20" height="20"/><rect class="d" width="20" height="20"/></g></g></svg>