<svg xmlns="http://www.w3.org/2000/svg" xmlns:xlink="http://www.w3.org/1999/xlink" width="20" height="20" viewBox="0 0 20 20"><defs><style>.a{fill:none;}.b{fill:rgba(0,0,0,0);}.c{clip-path:url(#a);}.d{fill:#22242a;}</style><clipPath id="a"><path class="a" d="M14.615,13.846H2.307A2.31,2.31,0,0,1,0,11.539V2.692l.307.231,7.713,5.4a.768.768,0,0,0,.882,0L16.6,2.938l.327-.219v8.819A2.31,2.31,0,0,1,14.615,13.846ZM8.461,6.753h0L1.21,1.677.374,1.05A2.3,2.3,0,0,1,2.307,0H14.615A2.3,2.3,0,0,1,16.58,1.1l-.853.568L8.462,6.753Z" transform="translate(0 0)"/></clipPath></defs><rect class="b" width="20" height="20"/><path class="a" d="M14.615,13.846H2.307A2.31,2.31,0,0,1,0,11.539V2.692l.307.231,7.713,5.4a.768.768,0,0,0,.882,0L16.6,2.938l.327-.219v8.819A2.31,2.31,0,0,1,14.615,13.846ZM8.461,6.753h0L1.21,1.677.374,1.05A2.3,2.3,0,0,1,2.307,0H14.615A2.3,2.3,0,0,1,16.58,1.1l-.853.568L8.462,6.753Z" transform="translate(1.538 3.077)"/><g class="c" transform="translate(1.538 3.077)"><g transform="translate(-1.538 -3.077)"><rect class="b" width="20" height="20"/><rect class="d" width="20" height="20"/></g></g></svg>