<svg xmlns="http://www.w3.org/2000/svg" xmlns:xlink="http://www.w3.org/1999/xlink" width="20" height="20" viewBox="0 0 20 20"><defs><style>.a{fill:none;}.b{fill:rgba(0,0,0,0);}.c{clip-path:url(#a);}.d{fill:#22242a;}</style><clipPath id="a"><path class="a" d="M8.461,16.923A8.461,8.461,0,0,1,2.478,2.478,8.461,8.461,0,1,1,14.444,14.444,8.4,8.4,0,0,1,8.461,16.923ZM5.769,11.539h5.385A1.923,1.923,0,0,1,12.921,12.7,6.154,6.154,0,1,0,4,12.7,1.922,1.922,0,0,1,5.769,11.539Zm2.692-1.154a2.692,2.692,0,1,1,2.692-2.692A2.7,2.7,0,0,1,8.461,10.385Z" transform="translate(0 0)"/></clipPath></defs><rect class="b" width="20" height="20"/><path class="a" d="M8.461,16.923A8.461,8.461,0,0,1,2.478,2.478,8.461,8.461,0,1,1,14.444,14.444,8.4,8.4,0,0,1,8.461,16.923ZM5.769,11.539h5.385A1.923,1.923,0,0,1,12.921,12.7,6.154,6.154,0,1,0,4,12.7,1.922,1.922,0,0,1,5.769,11.539Zm2.692-1.154a2.692,2.692,0,1,1,2.692-2.692A2.7,2.7,0,0,1,8.461,10.385Z" transform="translate(1.538 1.538)"/><g class="c" transform="translate(1.538 1.538)"><g transform="translate(-1.538 -1.538)"><rect class="b" width="20" height="20"/><rect class="d" width="20" height="20"/></g></g></svg>