<svg xmlns="http://www.w3.org/2000/svg" width="1343" height="1172"><path d="M577.538-.07C659.761-2.096 743.808 15.352 881 80l3.222 1.922c12.98 7.782 25.703 15.796 37.923 24.728a454 454 0 0 0 5.542 3.96c16.583 11.692 32.826 24.141 47.688 37.976 2.12 1.95 4.264 3.85 6.437 5.738 4.148 3.616 8.181 7.343 12.188 11.113l2.12 1.995c6.542 6.167 12.915 12.356 18.775 19.181 2.21 2.507 4.484 4.944 6.772 7.38 6.065 6.461 11.816 13.068 17.333 20.007q1.362 1.675 2.727 3.348c23.296 28.655 43.596 59.56 60.936 92.153a480 480 0 0 0 3.63 6.644c15.89 28.834 27.734 60.104 37.894 91.355.24.731.478 1.462.724 2.215q1.014 3.123 2.007 6.254l1.15 3.607c.945 3.47 1.5 6.856 1.932 10.424l1.655-.275c43.335-7.026 87.465-.153 123.81 25.681 34.329 25.345 58.821 62.2 65.574 104.703 6.364 44.707-4.123 87.53-31.137 123.7-6.894 8.785-14.205 17.155-22.902 24.191l-2.863 2.336c-25.386 20.33-58.176 34.778-91.082 34.832l-2.22.01q-2.31.007-4.623.007c-2.31.002-4.62.02-6.93.04-22.662.085-22.662.085-29.282-3.225l-.648 3.918c-1.607 8.008-4.362 15.672-6.977 23.394l-.818 2.43C1124.024 823.807 1100.15 872.694 1069 918l-1.459 2.13a508 508 0 0 1-34.189 44.296 551 551 0 0 0-4.137 4.886c-10.958 13.015-22.715 25.26-34.715 37.313l-2.21 2.224a234 234 0 0 1-12.477 11.583c-2.423 2.096-4.772 4.269-7.126 6.443-5.402 4.92-10.976 9.569-16.687 14.125l-1.54 1.236c-28.533 22.868-58.906 43.069-91.067 60.47q-2.452 1.327-4.9 2.667c-25.463 13.908-52.14 25.015-79.493 34.627l-2.881 1.036C736.224 1155.355 694.063 1164.208 652 1169c-1.243.15-2.485.3-3.766.453-42.465 4.946-86.8 4.647-129.234-.453l-3.72-.422c-77.151-8.894-153.712-33.924-220.745-73.1a730 730 0 0 0-7.004-4.025c-16.492-9.441-32.223-20.205-47.531-31.453l-1.932-1.413c-8.268-6.061-16.29-12.314-24.056-19.009-2.797-2.394-5.64-4.712-8.512-7.016-5.869-4.778-11.376-9.906-16.899-15.074-2.468-2.294-4.976-4.542-7.476-6.8-9.2-8.431-18.342-17.136-26.398-26.68-1.838-2.138-3.745-4.205-5.663-6.27-4.732-5.099-9.273-10.295-13.634-15.718a562 562 0 0 0-5.422-6.633C104.755 924.862 83.45 891 65 856l-1.468-2.778C44.252 816.447 29.39 777.186 19 737l-.501-1.939c-7.479-29.06-12.665-58.347-15.812-88.186l-.246-2.337C.46 625.488-.24 606.525-.25 587.375l-.002-3.291C-.169 499.093 18.773 416.287 54 339l1.356-2.979c6.37-13.889 13.464-27.245 21.15-40.448a608 608 0 0 0 3.908-6.846c14.665-25.812 32.242-50.158 51.158-72.995 2.04-2.475 4.042-4.982 6.053-7.482 4.022-4.917 8.273-9.584 12.602-14.23 1.963-2.111 3.84-4.276 5.707-6.473 5.224-5.994 10.916-11.546 16.545-17.156q2.93-2.924 5.851-5.858c6.052-6.056 12.1-12.033 18.67-17.533q1.643-1.424 3.281-2.852c39.138-33.801 82.078-62.56 128.654-85.14 2.194-1.07 4.375-2.166 6.557-3.262C407.47 20.052 488.878 2.592 577.538-.07" fill="#FFFEFE"/><path d="m586.875 282.75 2.585-.003c14.376.011 28.336.93 42.54 3.253l5.422.809C707.072 297.804 778.09 337.183 821 394q1.511 1.922 3.027 3.84c12.001 15.29 21.934 31.476 31.253 48.498C861.264 457.22 867.47 466.954 876 476l1.425 1.549c22.384 24.217 54.318 39.492 87.345 40.795 12.361.267 24.246-.107 36.23-3.344l2.344-.602c26.692-6.95 48.262-20.752 67.531-40.336 20.33-20.608 44.488-33.807 72.125-42.062l3.203-.965c40.518-11.126 84.235-1.915 120.102 18.473 36.572 21.554 61.674 58.29 72.406 98.883 9.782 40.18 3.473 84.136-17.916 119.608-9.26 14.762-20.195 29-33.795 40.001l-2.863 2.336c-25.386 20.33-58.176 34.778-91.082 34.832l-2.22.01q-2.31.007-4.623.007c-2.31.002-4.62.02-6.93.04-12.291.047-24.232-.988-36.094-4.413l-2.28-.651c-19.699-5.833-39.043-15.046-54.908-28.161q-1.58-1.26-3.16-2.516c-5.911-4.778-11.202-9.826-16.277-15.484-15.478-17.148-35.206-28.19-56.876-35.687l-2.549-.903c-30.166-10.105-63.795-5.262-91.896 8.399-25.936 13.013-46.09 33.058-59.192 58.948-9.43 18.579-20.78 36.154-34.05 52.243l-1.34 1.644c-6.983 8.51-14.53 16.424-22.285 24.231l-2.6 2.629c-5.95 5.92-12.195 11.292-18.775 16.496l-2.155 1.729c-63.774 50.892-145.735 73.164-226.533 64.177-25.474-3.056-50.55-9.152-74.312-18.906l-2.869-1.17C442.668 856.08 416.778 840.544 393 821c-.538-.435-1.077-.87-1.631-1.32-15.11-12.258-29.63-26.136-41.369-41.68a1946 1946 0 0 0-3.027-3.84c-20.304-25.87-35.83-54.504-47.274-85.293-.61-1.628-1.24-3.248-1.875-4.867-7.166-18.913-11.124-39.005-13.824-59l-.265-1.962c-1.531-11.605-2.061-23.026-1.985-34.726l.007-2.49c.26-75.185 27.946-148.963 79.63-204.021 2.405-2.578 4.73-5.209 7.05-7.863C383.606 357.112 402.121 343.342 421 331c1.083-.715 2.166-1.43 3.281-2.168 48.872-31.188 104.937-46.034 162.594-46.082" fill="#FF8200"/></svg>